<svg xmlns="http://www.w3.org/2000/svg" viewBox="0 0 800 40" preserveAspectRatio="none" fill="currentColor">
<rect x="0.00" y="5.77" width="5.00" height="28.46" rx="1" />
<rect x="10.00" y="15.60" width="5.00" height="8.80" rx="1" />
<rect x="20.00" y="11.60" width="5.00" height="16.80" rx="1" />
<rect x="30.00" y="12.43" width="5.00" height="15.14" rx="1" />
<rect x="40.00" y="4.22" width="5.00" height="31.57" rx="1" />
<rect x="50.00" y="5.17" width="5.00" height="29.65" rx="1" />
<rect x="60.00" y="1.73" width="5.00" height="36.55" rx="1" />
<rect x="70.00" y="14.61" width="5.00" height="10.78" rx="1" />
<rect x="80.00" y="9.25" width="5.00" height="21.50" rx="1" />
<rect x="90.00" y="15.52" width="5.00" height="8.95" rx="1" />
<rect x="100.00" y="12.50" width="5.00" height="15.00" rx="1" />
<rect x="110.00" y="7.91" width="5.00" height="24.17" rx="1" />
<rect x="120.00" y="15.58" width="5.00" height="8.85" rx="1" />
<rect x="130.00" y="12.82" width="5.00" height="14.36" rx="1" />
<rect x="140.00" y="5.60" width="5.00" height="28.80" rx="1" />
<rect x="150.00" y="7.28" width="5.00" height="25.44" rx="1" />
<rect x="160.00" y="12.47" width="5.00" height="15.05" rx="1" />
<rect x="170.00" y="6.57" width="5.00" height="26.86" rx="1" />
<rect x="180.00" y="3.05" width="5.00" height="33.90" rx="1" />
<rect x="190.00" y="15.90" width="5.00" height="8.21" rx="1" />
<rect x="200.00" y="3.11" width="5.00" height="33.79" rx="1" />
<rect x="210.00" y="4.83" width="5.00" height="30.34" rx="1" />
<rect x="220.00" y="10.56" width="5.00" height="18.89" rx="1" />
<rect x="230.00" y="13.51" width="5.00" height="12.98" rx="1" />
<rect x="240.00" y="0.68" width="5.00" height="38.63" rx="1" />
<rect x="250.00" y="10.61" width="5.00" height="18.77" rx="1" />
<rect x="260.00" y="14.52" width="5.00" height="10.97" rx="1" />
<rect x="270.00" y="14.45" width="5.00" height="11.09" rx="1" />
<rect x="280.00" y="2.44" width="5.00" height="35.12" rx="1" />
<rect x="290.00" y="6.34" width="5.00" height="27.32" rx="1" />
<rect x="300.00" y="3.09" width="5.00" height="33.83" rx="1" />
<rect x="310.00" y="4.32" width="5.00" height="31.35" rx="1" />
<rect x="320.00" y="7.42" width="5.00" height="25.16" rx="1" />
<rect x="330.00" y="0.43" width="5.00" height="39.14" rx="1" />
<rect x="340.00" y="9.94" width="5.00" height="20.11" rx="1" />
<rect x="350.00" y="7.17" width="5.00" height="25.67" rx="1" />
<rect x="360.00" y="2.73" width="5.00" height="34.54" rx="1" />
<rect x="370.00" y="6.10" width="5.00" height="27.79" rx="1" />
<rect x="380.00" y="2.21" width="5.00" height="35.57" rx="1" />
<rect x="390.00" y="6.76" width="5.00" height="26.48" rx="1" />
<rect x="400.00" y="4.73" width="5.00" height="30.55" rx="1" />
<rect x="410.00" y="15.27" width="5.00" height="9.47" rx="1" />
<rect x="420.00" y="12.35" width="5.00" height="15.29" rx="1" />
<rect x="430.00" y="11.37" width="5.00" height="17.26" rx="1" />
<rect x="440.00" y="14.72" width="5.00" height="10.55" rx="1" />
<rect x="450.00" y="12.28" width="5.00" height="15.45" rx="1" />
<rect x="460.00" y="14.38" width="5.00" height="11.23" rx="1" />
<rect x="470.00" y="11.55" width="5.00" height="16.90" rx="1" />
<rect x="480.00" y="5.83" width="5.00" height="28.34" rx="1" />
<rect x="490.00" y="10.16" width="5.00" height="19.67" rx="1" />
<rect x="500.00" y="10.08" width="5.00" height="19.85" rx="1" />
<rect x="510.00" y="12.65" width="5.00" height="14.70" rx="1" />
<rect x="520.00" y="11.73" width="5.00" height="16.54" rx="1" />
<rect x="530.00" y="1.01" width="5.00" height="37.97" rx="1" />
<rect x="540.00" y="5.63" width="5.00" height="28.74" rx="1" />
<rect x="550.00" y="6.25" width="5.00" height="27.49" rx="1" />
<rect x="560.00" y="13.26" width="5.00" height="13.48" rx="1" />
<rect x="570.00" y="4.33" width="5.00" height="31.33" rx="1" />
<rect x="580.00" y="13.39" width="5.00" height="13.23" rx="1" />
<rect x="590.00" y="9.93" width="5.00" height="20.14" rx="1" />
<rect x="600.00" y="0.17" width="5.00" height="39.66" rx="1" />
<rect x="610.00" y="5.76" width="5.00" height="28.48" rx="1" />
<rect x="620.00" y="7.09" width="5.00" height="25.82" rx="1" />
<rect x="630.00" y="5.05" width="5.00" height="29.91" rx="1" />
<rect x="640.00" y="2.51" width="5.00" height="34.97" rx="1" />
<rect x="650.00" y="3.58" width="5.00" height="32.83" rx="1" />
<rect x="660.00" y="12.34" width="5.00" height="15.33" rx="1" />
<rect x="670.00" y="15.49" width="5.00" height="9.03" rx="1" />
<rect x="680.00" y="10.95" width="5.00" height="18.09" rx="1" />
<rect x="690.00" y="11.72" width="5.00" height="16.57" rx="1" />
<rect x="700.00" y="12.62" width="5.00" height="14.75" rx="1" />
<rect x="710.00" y="0.91" width="5.00" height="38.17" rx="1" />
<rect x="720.00" y="1.98" width="5.00" height="36.04" rx="1" />
<rect x="730.00" y="10.97" width="5.00" height="18.07" rx="1" />
<rect x="740.00" y="5.51" width="5.00" height="28.97" rx="1" />
<rect x="750.00" y="9.67" width="5.00" height="20.66" rx="1" />
<rect x="760.00" y="1.37" width="5.00" height="37.27" rx="1" />
<rect x="770.00" y="8.66" width="5.00" height="22.68" rx="1" />
<rect x="780.00" y="11.76" width="5.00" height="16.48" rx="1" />
<rect x="790.00" y="12.05" width="5.00" height="15.89" rx="1" />
</svg>